<svg version="1.2" xmlns="http://www.w3.org/2000/svg" viewBox="0 0 896 129" width="896" height="129">
	<title>1XB ella house logo white_-ai</title>
	<style>
		.s0 { fill: #fefefe } 
	</style>
	<g id="Layer 1">
		<g id="&lt;Group&gt;">
			<g id="&lt;Group&gt;">
				<g id="&lt;Group&gt;">
					<path id="&lt;Compound Path&gt;" fill-rule="evenodd" class="s0" d="m244.2 122.7v3h-89.4v-3c0-18.2-14.5-33-32.7-34.1h-2.1c-18.9 0-34.2 15.3-34.2 34.2v3h-84.9v-6h79c0.6-8.6 3.9-16.3 9.1-22.5l-56.8-55.1 4.2-4.3 56.7 55c6.4-5.8 14.7-9.5 23.8-10.2l0.1-31.3v-47.8-2.9h3c68.5 0 124.2 54.7 124.2 122zm-121.2-116v40c18.9 0.6 36.1 8 49.2 19.7l28.7-28.2c-20.5-18.9-47.8-30.8-77.9-31.5zm44.9 63.9c-12-10.6-27.7-17.3-44.9-17.9v29.9c8.8 0.7 16.8 4.1 23.2 9.3zm-7.2 49.1h30.7c-0.7-17.3-7.9-33-19.2-44.9l-21.7 21.3c5.8 6.4 9.5 14.6 10.2 23.6zm77.5 0.1c-0.8-30-13.2-57.2-33-77.4l-28.7 28.2c12.4 13 20.2 30.2 20.9 49.1z"/>
				</g>
				<g id="&lt;Group&gt;">
					<path id="&lt;Compound Path&gt;" class="s0" d="m274.2 21.1h40.4v10.6h-29v31.4h21.4v10.7h-21.4v41.9h29v10.8h-40.4z"/>
					<path id="&lt;Compound Path&gt;" class="s0" d="m340.2 21.1h11.7v94.4h26.2v11h-37.9z"/>
					<path id="&lt;Compound Path&gt;" class="s0" d="m401.7 21.1h11.8v94.4h26.2v11h-38z"/>
					<path id="&lt;Compound Path&gt;" fill-rule="evenodd" class="s0" d="m475.2 21.1h13.3l18.8 105.4h-11.6l-3.1-20h-21.4l-3.2 20h-11.4zm-2.6 76.1h18.4l-8.6-53.5-0.5-2.8h-0.3l-0.3 2.8z"/>
					<path id="&lt;Compound Path&gt;" class="s0" d="m565.7 21.1h11.8v41.9h21.2v-41.9h11.6v105.4h-11.6v-52.5h-21.2v52.5h-11.8z"/>
					<path id="&lt;Compound Path&gt;" fill-rule="evenodd" class="s0" d="m639.1 73.8c0-21.1 0.9-36 3.6-42.9 3.3-8.4 11.1-11.6 19.4-11.6 7.4 0 15.8 2.4 19.5 11.6 2.7 6.9 3.6 19.7 3.6 42.9 0 21.1-0.9 36-3.6 42.9-3.4 8.5-11.2 11.6-19.5 11.6-8.3 0-16.1-3.1-19.4-11.6-2.7-6.9-3.6-21.8-3.6-42.9zm23 44.2c5.6 0 8.6-2.3 9.8-10 0.9-6.2 1.4-22 1.4-34.2 0-12.2-0.5-28-1.4-34.2-1.2-7.6-4.2-9.9-9.8-9.9-5.5 0-8.6 2.3-9.8 9.9-0.9 6.2-1.2 22-1.2 34.2 0 12.2 0.3 28 1.2 34.2 1.2 7.7 4.3 10 9.8 10z"/>
					<path id="&lt;Compound Path&gt;" class="s0" d="m735.9 117.7c5.4 0 9.1-1.9 10.1-10.4 0.5-3.5 0.6-9.7 0.6-17.8v-68.4h11.6v73.5c0 23.4-4.5 33.7-22.3 33.7-17.6 0-22.3-10.3-22.3-33.7v-73.5h11.8v68.4c0 8.1 0.1 14.3 0.6 17.8 1 8.5 4.5 10.4 9.9 10.4z"/>
					<path id="&lt;Compound Path&gt;" class="s0" d="m784.3 97.6l11.3-2.2c0.9 18.8 3.3 22.4 11.5 22.4 6.7 0 9.8-3.2 9.8-12.3 0-13.3-5.7-19.6-14.6-28.8-10.4-10.7-17.4-19.7-17.4-33.9 0-15.5 8.4-23.5 22.1-23.5 16.9 0 21.4 12.2 21.7 30l-11.5 2.1c-0.1-14-1-21.7-10.5-21.7-6.6 0-10.4 3.6-10.4 12.5 0 12 6.8 18.8 14.6 27 9.2 9.4 17.8 18 17.8 35.3 0 14.1-5.9 23.8-21.7 23.8-13.7 0-22-6.4-22.7-30.7z"/>
					<path id="&lt;Compound Path&gt;" class="s0" d="m855.3 21.1h40.4v10.6h-28.9v31.4h21.4v10.7h-21.4v41.9h28.9v10.8h-40.4z"/>
				</g>
			</g>
		</g>
	</g>
</svg>