<svg version="1.2" xmlns="http://www.w3.org/2000/svg" viewBox="0 0 622 177" width="622" height="177">
	<title>1XC ella house logo white_-svg</title>
	<style>
		.s0 { fill: #f5f5f2 } 
	</style>
	<g id="Layer">
		<g id="Layer">
			<path id="Layer" class="s0" d="m0.4 2.5h40.4v10.5h-28.9v31.5h21.4v10.7h-21.4v41.9h28.9v10.8h-40.4z"/>
			<path id="Layer" class="s0" d="m66.4 2.5h11.7v94.4h26.2v11h-38v-105.4z"/>
			<path id="Layer" class="s0" d="m128 2.5h11.7v94.4h26.2v11h-38v-105.4z"/>
			<path id="Layer" fill-rule="evenodd" class="s0" d="m201.4 2.5h13.3l18.8 105.4h-11.6l-3.2-20h-21.4l-3.2 20h-11.4zm-2.5 76.1h18.4l-8.6-53.5-0.5-2.9h-0.3l-0.3 2.9z"/>
			<path id="Layer" class="s0" d="m291.9 2.5h11.7v41.9h21.2v-41.9h11.6v105.4h-11.6v-52.6h-21.2v52.6h-11.7z"/>
			<path id="Layer" fill-rule="evenodd" class="s0" d="m365.3 55.2c0-21.1 0.9-36 3.6-42.9 3.3-8.4 11.1-11.6 19.4-11.6 7.4 0 15.8 2.4 19.4 11.6 2.7 6.9 3.6 19.7 3.6 42.9 0 21.1-0.9 36-3.6 42.9-3.3 8.4-11.1 11.6-19.4 11.6-8.3 0-16.1-3.2-19.4-11.6-2.7-6.9-3.6-21.8-3.6-42.9zm23 44.2c5.6 0 8.6-2.3 9.8-9.9 0.9-6.2 1.4-22 1.4-34.2 0-12.2-0.5-28-1.4-34.2-1.2-7.7-4.2-9.9-9.8-9.9-5.6 0-8.6 2.3-9.8 9.9-0.9 6.2-1.2 22-1.2 34.2 0 12.2 0.3 28 1.2 34.2 1.2 7.6 4.3 9.9 9.8 9.9z"/>
			<path id="Layer" class="s0" d="m462.1 99c5.4 0 9-1.8 10.1-10.4 0.5-3.5 0.6-9.6 0.6-17.8v-68.4h11.6v73.6c0 23.3-4.5 33.7-22.3 33.7-17.6 0-22.3-10.4-22.3-33.7v-73.5h11.7v68.4c0 8.1 0.2 14.3 0.6 17.8 1.1 8.5 4.6 10.3 10 10.3z"/>
			<path id="Layer" class="s0" d="m510.5 79l11.3-2.3c0.9 18.8 3.3 22.4 11.6 22.4 6.6 0 9.8-3.2 9.8-12.3 0-13.3-5.7-19.6-14.6-28.8-10.4-10.7-17.5-19.7-17.5-33.9 0-15.5 8.4-23.5 22.1-23.5 16.9 0 21.4 12.2 21.7 30l-11.4 2.1c-0.2-14-1.1-21.7-10.5-21.7-6.6 0-10.4 3.6-10.4 12.5 0 12 6.8 18.8 14.6 27 9.2 9.5 17.8 18.1 17.8 35.4 0 14-5.9 23.8-21.7 23.8-13.8 0-22.1-6.4-22.8-30.7z"/>
			<path id="Layer" class="s0" d="m581.5 2.5h40.4v10.5h-28.9v31.5h21.4v10.7h-21.4v41.9h28.9v10.8h-40.4z"/>
		</g>
		<g id="Layer">
			<path id="Layer" class="s0" d="m79 160.5v4h11.2v3.5h-11.2v4.6h12.3l-0.5 3.5h-16.1v-19.1h16v3.5z"/>
			<path id="Layer" class="s0" d="m94.2 176.1l8-9.9-7.4-9.2h5.1l5 6.4 5.2-6.4h4.9l-7.4 9 8.3 10.1h-5.2l-5.8-7.3-5.9 7.3z"/>
			<path id="Layer" class="s0" d="m127.2 176.5c-2.1 0-4-0.4-5.6-1.2-1.6-0.8-2.8-2-3.7-3.5-0.9-1.5-1.3-3.3-1.3-5.4 0-1.9 0.4-3.7 1.3-5.2 0.9-1.5 2.1-2.7 3.7-3.5 1.6-0.9 3.5-1.3 5.7-1.3 5.3 0 8.6 2.2 9.7 6.6l-4.3 0.5c-0.4-1.2-1.1-2.1-1.9-2.7-0.9-0.5-2-0.8-3.5-0.8-1.9 0-3.4 0.5-4.5 1.7-1.1 1.2-1.7 2.8-1.7 4.8 0 2 0.6 3.6 1.7 4.8 1.1 1.1 2.6 1.7 4.6 1.7 1.6 0 2.9-0.3 3.8-0.9q1.3-0.9 1.8-2.7h4.3c-0.3 2.3-1.4 4.1-3.1 5.3-1.7 1.3-4 1.9-7 1.8z"/>
			<path id="Layer" class="s0" d="m146.4 160.5v4h11.2v3.5h-11.2v4.6h12.3l-0.5 3.5h-16.1v-19.1h16v3.5z"/>
			<path id="Layer" fill-rule="evenodd" class="s0" d="m163.6 156.9h9.3c5.3 0 8 2.1 8 6.3q0 3.3-2.1 4.8c-1.4 1.1-3.5 1.6-6.3 1.6h-4.7v6.5h-4.2zm4.4 3.4v5.9h4.7c1.4 0 2.4-0.2 3.1-0.7 0.7-0.5 1-1.3 1-2.3 0-1-0.4-1.7-1-2.2-0.6-0.5-1.7-0.7-3.1-0.7z"/>
			<path id="Layer" class="s0" d="m191.3 176.1v-15.6h-7.5v-3.5h19.3v3.5h-7.5v15.6z"/>
			<path id="Layer" class="s0" d="m207.2 157h4.3v19.1h-4.3z"/>
			<path id="Layer" fill-rule="evenodd" class="s0" d="m221.4 157.7q2.6-1.2 6-1.2c2.2 0 4.2 0.4 5.8 1.2 1.7 0.8 3 2 3.9 3.5 0.9 1.5 1.4 3.3 1.4 5.4 0 2-0.4 3.8-1.3 5.3-0.9 1.5-2.1 2.7-3.8 3.5q-2.6 1.2-6 1.2c-2.2 0-4.1-0.4-5.8-1.2-1.7-0.8-3-2-3.9-3.5-0.9-1.5-1.4-3.3-1.4-5.4 0-2 0.4-3.8 1.3-5.3 0.9-1.5 2.2-2.6 3.8-3.5zm-0.6 8.8c0 2 0.5 3.7 1.7 4.8 1.2 1.1 2.8 1.7 4.9 1.7 2.1 0 3.7-0.5 4.9-1.7 1.1-1.1 1.7-2.7 1.7-4.8 0-2-0.5-3.7-1.7-4.8-1.2-1.1-2.8-1.7-4.9-1.7-2.1 0-3.7 0.6-4.9 1.7-1.2 1.2-1.7 2.8-1.7 4.8z"/>
			<path id="Layer" class="s0" d="m247.5 162.7v13.4h-4.1v-19.1h3.9l11 13.3v-13.3h4.1v19.1h-3.9z"/>
			<path id="Layer" fill-rule="evenodd" class="s0" d="m272.7 171.7l-1.9 4.3h-4.4l8.8-19.1h4.8l8.8 19.1h-4.5l-1.9-4.3zm1.5-3.3h6.8l-3.4-7.7z"/>
			<path id="Layer" class="s0" d="m297.2 157v15.5h11.7l-0.6 3.6h-15.4v-19.1z"/>
			<path id="Layer" class="s0" d="m342 171.1l4.1-14.1h4.6l-6.4 19.1h-4.6l-4.4-13.6-4.4 13.6h-4.5l-6.4-19.1h4.7l4.2 14.1 4.4-14h4.2z"/>
			<path id="Layer" fill-rule="evenodd" class="s0" d="m354.5 171.9c-0.9-1.5-1.4-3.3-1.4-5.4 0-2 0.4-3.8 1.3-5.3 0.9-1.5 2.1-2.7 3.8-3.5q2.5-1.2 6-1.2c2.2 0 4.1 0.4 5.8 1.2 1.7 0.8 3 2 3.9 3.5 0.9 1.5 1.4 3.3 1.4 5.4 0 2-0.4 3.8-1.3 5.3-0.9 1.5-2.1 2.7-3.8 3.5q-2.6 1.2-6 1.2c-2.2 0-4.2-0.4-5.8-1.2-1.7-0.8-3-2-3.9-3.5zm3.1-5.4c0 2 0.5 3.7 1.7 4.8 1.2 1.1 2.8 1.7 4.9 1.7 2.1 0 3.7-0.5 4.9-1.7 1.1-1.1 1.7-2.7 1.7-4.8 0-2-0.5-3.7-1.7-4.8-1.2-1.1-2.8-1.7-4.9-1.7-2.1 0-3.7 0.6-4.9 1.7-1.2 1.2-1.7 2.8-1.7 4.8z"/>
			<path id="Layer" fill-rule="evenodd" class="s0" d="m394 168.1l4.8 7.9h-4.7l-4.2-7.2h-5.6v7.2h-4.1v-19.1h9.4c5.3 0 8 2 8 6 0 1.3-0.3 2.3-0.9 3.2-0.6 0.9-1.5 1.6-2.7 2zm-0.7-5.2c0-0.9-0.3-1.6-0.9-2-0.6-0.4-1.7-0.6-3.1-0.6h-5v5.4h5c1.4 0 2.4-0.3 3.1-0.7 0.6-0.5 1-1.1 0.9-2.1z"/>
			<path id="Layer" class="s0" d="m407.1 157v7.9l9.4-7.9h5.2l-8.2 6.9 9 12.2h-4.9l-7.1-9.7-3.4 2.9v6.8h-4.3v-19.1z"/>
			<path id="Layer" class="s0" d="m434.4 176.7c-2.1-0.1-3.9-0.3-5.3-0.8-1.4-0.5-2.5-1.3-3.2-2.3-0.7-1-1.2-2.3-1.3-3.9h4.3c0.2 1.2 0.7 2.1 1.6 2.7q1.2 0.9 3.9 0.9 2.4 0 3.6-0.6c0.8-0.5 1.2-1.1 1.2-1.9 0-0.7-0.3-1.2-0.8-1.6-0.5-0.4-1.4-0.6-2.5-0.8l-3.2-0.5c-2.6-0.3-4.5-1-5.7-1.9-1.2-1-1.8-2.3-1.8-4 0-1.2 0.4-2.2 1.1-3 0.7-0.8 1.7-1.4 3.1-1.9 1.4-0.5 3-0.7 4.9-0.7 2.7 0 4.7 0.4 6.1 1.3 1.4 0.9 2.4 2.2 2.8 4.1l-4.2 0.5c-0.4-0.9-1-1.6-1.7-2-0.7-0.4-1.8-0.6-3.1-0.6-1.5 0-2.7 0.2-3.5 0.6-0.8 0.3-1.2 0.9-1.2 1.6 0 0.7 0.2 1.2 0.7 1.5 0.5 0.3 1.4 0.6 2.7 0.8l3.9 0.6c2.3 0.4 4 1.1 5.1 2 1.1 1 1.6 2.3 1.6 3.9 0 1.8-0.8 3.3-2.4 4.3-1.6 1.1-3.8 1.6-6.7 1.7z"/>
			<path id="Layer" fill-rule="evenodd" class="s0" d="m448.4 156.9h9.3c5.3 0 8 2.1 8 6.3q0 3.3-2.1 4.8c-1.4 1.1-3.5 1.6-6.3 1.6h-4.7v6.5h-4.2zm4.3 3.4v5.9h4.7c1.4 0 2.4-0.2 3.1-0.7 0.7-0.5 1-1.3 1-2.3 0-1-0.4-1.7-1-2.2-0.6-0.5-1.7-0.7-3.1-0.7z"/>
			<path id="Layer" fill-rule="evenodd" class="s0" d="m479 157l8.8 19.1h-4.5l-1.9-4.3h-9.6l-1.9 4.3h-4.4l8.8-19.1zm1.1 11.3l-3.4-7.7-3.4 7.7z"/>
			<path id="Layer" class="s0" d="m500.4 176.5c-2.1 0-4-0.4-5.6-1.2-1.6-0.8-2.8-2-3.7-3.5-0.9-1.5-1.3-3.3-1.3-5.4 0-1.9 0.4-3.7 1.3-5.2 0.9-1.5 2.1-2.7 3.7-3.5 1.6-0.9 3.5-1.3 5.7-1.3 5.3 0 8.6 2.2 9.7 6.6l-4.3 0.5c-0.4-1.2-1.1-2.1-1.9-2.7-0.9-0.5-2-0.8-3.5-0.8-1.9 0-3.4 0.5-4.5 1.7-1.1 1.2-1.7 2.8-1.7 4.8 0 2 0.6 3.6 1.7 4.8 1.1 1.1 2.6 1.7 4.6 1.7 1.5 0 2.8-0.3 3.7-0.9q1.4-0.9 1.8-2.7h4.3c-0.3 2.3-1.4 4.1-3.1 5.3q-2.5 2-6.9 1.8z"/>
			<path id="Layer" class="s0" d="m519.5 160.5v4h11.2v3.5h-11.2v4.6h12.3l-0.5 3.5h-16.1v-19.1h16.1v3.5z"/>
			<path id="Layer" class="s0" d="m545.4 176.7c-2.1-0.1-3.9-0.3-5.3-0.8-1.4-0.5-2.5-1.3-3.2-2.3-0.7-1-1.2-2.3-1.3-3.9h4.3c0.2 1.2 0.7 2.1 1.6 2.7q1.2 0.9 3.9 0.9c1.5 0 2.7-0.2 3.5-0.6 0.8-0.5 1.2-1.1 1.2-1.9 0-0.7-0.3-1.2-0.8-1.6-0.5-0.4-1.4-0.6-2.5-0.8l-3.2-0.5c-2.6-0.3-4.5-1-5.7-1.9-1.2-1-1.8-2.3-1.8-4 0-1.2 0.4-2.2 1.1-3 0.7-0.8 1.7-1.4 3.1-1.9 1.4-0.5 3-0.7 4.9-0.7 2.7 0 4.7 0.4 6.1 1.3 1.4 0.9 2.4 2.2 2.8 4.1l-4.2 0.5c-0.4-0.9-1-1.6-1.7-2-0.7-0.4-1.8-0.6-3.1-0.6-1.5 0-2.7 0.2-3.5 0.6-0.8 0.3-1.2 0.9-1.2 1.6 0 0.7 0.2 1.2 0.7 1.5 0.5 0.3 1.4 0.6 2.7 0.8l3.9 0.6c2.3 0.4 4 1 5.1 2 1.1 1 1.6 2.3 1.6 3.9 0 1.8-0.8 3.3-2.4 4.3-1.6 1.1-3.8 1.6-6.6 1.7z"/>
		</g>
	</g>
</svg>