<svg version="1.2" xmlns="http://www.w3.org/2000/svg" viewBox="0 0 622 396" width="622" height="396">
	<title>1XB ella house logo white_-ai</title>
	<style>
		.s0 { fill: #fefefe } 
	</style>
	<g id="Layer 1">
		<g id="&lt;Group&gt;">
			<g id="&lt;Group&gt;">
				<path id="&lt;Compound Path&gt;" fill-rule="evenodd" class="s0" d="m74 395.6v-18.9h9.2q7.8 0 7.8 4.8 0 3-3.1 4.1 3.8 1.2 3.8 4.5 0 2.7-2.1 4.1-2 1.4-6 1.4zm9.2-11.4q1.9 0 2.8-0.5 0.9-0.6 0.9-1.8 0-1.1-0.9-1.6-0.9-0.5-3-0.5h-5v4.4zm0.1 8.2q2.2 0 3.2-0.6 1-0.6 1-1.9 0-1.3-1-2-1-0.6-3.2-0.6h-5.3v5.1z"/>
				<path id="&lt;Compound Path&gt;" class="s0" d="m99.6 395.6v-18.9h15.9v3.4h-11.6v4h11v3.5h-11v4.5h12.2l-0.6 3.5z"/>
				<path id="&lt;Compound Path&gt;" fill-rule="evenodd" class="s0" d="m139.5 395.6l-1.9-4.3h-9.5l-1.9 4.3h-4.3l8.6-18.9h4.8l8.7 18.9zm-6.7-15.3l-3.3 7.6h6.7z"/>
				<path id="&lt;Compound Path&gt;" class="s0" d="m164.1 376.7h4.2v10.9q0 4.3-2.3 6.4-2.3 2.1-7 2.1-4.7 0-6.9-2.1-2.3-2.1-2.3-6.4v-10.9h4.2v11.2q0 2.4 1.2 3.6 1.2 1.1 3.8 1.1 2.6 0 3.8-1.1 1.3-1.2 1.3-3.6z"/>
				<path id="&lt;Compound Path&gt;" class="s0" d="m182.5 395.6v-15.4h-7.5v-3.5h19.1v3.5h-7.4v15.4z"/>
				<path id="&lt;Compound Path&gt;" class="s0" d="m201.1 395.6v-18.9h4.2v18.9z"/>
				<path id="&lt;Compound Path&gt;" class="s0" d="m218.5 388v7.6h-4.3v-18.9h15.1v3.4h-10.8v4.4h10.3v3.5z"/>
				<path id="&lt;Compound Path&gt;" class="s0" d="m250.9 376.7h4.2v10.9q0 4.3-2.3 6.4-2.3 2.1-7 2.1-4.6 0-6.9-2.1-2.3-2.1-2.3-6.4v-10.9h4.2v11.2q0 2.4 1.2 3.6 1.2 1.1 3.8 1.1 2.6 0 3.9-1.1 1.2-1.2 1.2-3.6z"/>
				<path id="&lt;Compound Path&gt;" class="s0" d="m263.8 395.6v-18.9h4.3v15.4h11.5l-0.5 3.5z"/>
				<path id="&lt;Compound Path&gt;" class="s0" d="m316 395.6l-4.3-13.5-4.4 13.5h-4.4l-6.3-18.9h4.6l4.1 13.9 4.4-13.8h4.1l4.5 13.9 4.1-14h4.5l-6.3 18.9z"/>
				<path id="&lt;Compound Path&gt;" fill-rule="evenodd" class="s0" d="m354.2 386.1q0 3-1.4 5.3-1.3 2.2-3.8 3.4-2.4 1.3-5.8 1.3-3.3 0-5.8-1.2-2.4-1.2-3.8-3.4-1.4-2.3-1.4-5.4 0-3 1.3-5.2 1.4-2.2 3.8-3.5 2.5-1.2 5.9-1.2 3.3 0 5.8 1.2 2.4 1.1 3.8 3.4 1.4 2.2 1.4 5.3zm-4.4 0q0-3-1.8-4.7-1.7-1.7-4.8-1.7-3.1 0-4.8 1.7-1.8 1.7-1.8 4.7 0 3.1 1.8 4.8 1.7 1.7 4.8 1.7 3.1 0 4.8-1.7 1.8-1.7 1.8-4.8z"/>
				<path id="&lt;Compound Path&gt;" fill-rule="evenodd" class="s0" d="m375.7 395.6l-4.2-7.1h-5.5v7.1h-4.1v-18.9h9.3q7.9 0 7.9 5.9 0 1.9-0.8 3.2-0.9 1.2-2.8 1.9l4.8 7.9zm-4.8-10.3q2.1 0 3.1-0.7 1-0.6 1-2.1 0-1.4-0.9-2-1-0.6-3.1-0.6h-5v5.4z"/>
				<path id="&lt;Compound Path&gt;" class="s0" d="m401.9 395.6l-7.1-9.6-3.3 2.8v6.8h-4.2v-18.9h4.2v7.8l9.3-7.8h5.2l-8.2 6.9 9 12z"/>
				<path id="&lt;Compound Path&gt;" class="s0" d="m425.9 382q-0.6-1.4-1.7-2-1.1-0.6-3.1-0.6-2.3 0-3.5 0.6-1.1 0.6-1.1 1.6 0 1 0.7 1.5 0.7 0.5 2.6 0.8l3.9 0.6q3.5 0.5 5.1 1.9 1.6 1.4 1.6 3.9 0 2.7-2.3 4.2-2.3 1.6-6.7 1.6-3.1 0-5.2-0.8-2.1-0.7-3.2-2.2-1.1-1.5-1.3-3.9h4.2q0.3 1.9 1.6 2.7 1.3 0.9 3.9 0.9 2.3 0 3.5-0.6 1.2-0.6 1.2-1.9 0-0.9-0.8-1.5-0.8-0.6-2.5-0.8l-3.1-0.4q-3.9-0.6-5.7-2-1.8-1.4-1.8-3.9 0-1.7 1.1-2.9 1-1.3 3.1-1.9 2-0.7 4.8-0.7 3.9 0 6 1.3 2.1 1.3 2.8 4z"/>
				<path id="&lt;Compound Path&gt;" fill-rule="evenodd" class="s0" d="m438.3 395.6v-18.9h9.2q7.9 0 7.9 6.2 0 3.2-2 4.7-2.1 1.6-6.3 1.6h-4.7v6.4zm8.9-9.7q2.1 0 3.1-0.8 1-0.7 1-2.2 0-1.5-1-2.2-0.9-0.7-3-0.7h-4.8v5.9z"/>
				<path id="&lt;Compound Path&gt;" fill-rule="evenodd" class="s0" d="m475.8 395.6l-1.9-4.3h-9.6l-1.8 4.3h-4.4l8.7-18.9h4.8l8.6 18.9zm-6.6-15.3l-3.4 7.6h6.7z"/>
				<path id="&lt;Compound Path&gt;" class="s0" d="m505.5 389q-0.5 3.4-3.1 5.2-2.6 1.9-6.8 1.9-3.2 0-5.6-1.2-2.3-1.2-3.6-3.4-1.3-2.3-1.3-5.4 0-2.9 1.2-5.2 1.3-2.2 3.7-3.5 2.3-1.2 5.6-1.2 7.9 0 9.5 6.5l-4.2 0.5q-0.6-1.9-1.9-2.7-1.2-0.8-3.4-0.8-2.9 0-4.5 1.7-1.6 1.7-1.6 4.7 0 3.1 1.6 4.8 1.6 1.7 4.6 1.7 2.3 0 3.7-0.9 1.3-0.9 1.8-2.7z"/>
				<path id="&lt;Compound Path&gt;" class="s0" d="m513.2 395.6v-18.9h15.8v3.4h-11.6v4h11.1v3.5h-11.1v4.5h12.2l-0.5 3.5z"/>
				<path id="&lt;Compound Path&gt;" class="s0" d="m550.3 382q-0.6-1.4-1.7-2-1.1-0.6-3.1-0.6-2.3 0-3.5 0.6-1.2 0.6-1.2 1.6 0 1 0.8 1.5 0.7 0.5 2.6 0.8l3.9 0.6q3.5 0.5 5.1 1.9 1.6 1.4 1.6 3.9 0 2.7-2.3 4.2-2.4 1.6-6.7 1.6-3.2 0-5.2-0.8-2.1-0.7-3.2-2.2-1.1-1.5-1.3-3.9h4.2q0.3 1.9 1.6 2.7 1.3 0.9 3.9 0.9 2.3 0 3.5-0.6 1.2-0.6 1.2-1.9 0-0.9-0.8-1.5-0.8-0.6-2.5-0.8l-3.2-0.4q-3.8-0.6-5.6-2-1.8-1.4-1.8-3.9 0-1.7 1.1-2.9 1-1.3 3.1-1.9 2-0.7 4.8-0.7 3.9 0 6 1.3 2.1 1.3 2.8 4z"/>
			</g>
			<g id="&lt;Group&gt;">
				<g id="&lt;Group&gt;">
					<path id="&lt;Compound Path&gt;" fill-rule="evenodd" class="s0" d="m435.2 122.7v3h-89.4v-3c0-18.2-14.5-33-32.7-34.1h-2.1c-18.9 0-34.2 15.3-34.2 34.2v3h-84.9v-6h79c0.6-8.6 3.9-16.3 9.1-22.5l-56.8-55.1 4.2-4.3 56.7 55c6.4-5.8 14.7-9.5 23.8-10.2l0.1-31.3v-47.8-2.9h3c68.5 0 124.2 54.7 124.2 122zm-121.2-116v40c18.9 0.6 36.1 8 49.2 19.7l28.7-28.2c-20.5-18.9-47.8-30.8-77.9-31.5zm44.9 63.9c-12-10.6-27.7-17.3-44.9-17.9v29.9c8.8 0.7 16.8 4.1 23.2 9.3zm-7.2 49.1h30.7c-0.7-17.3-7.9-33-19.2-44.9l-21.7 21.3c5.8 6.4 9.5 14.6 10.2 23.6zm77.5 0.1c-0.8-30-13.2-57.2-33-77.4l-28.7 28.2c12.4 13 20.2 30.2 20.9 49.1z"/>
				</g>
				<g id="&lt;Group&gt;">
					<path id="&lt;Compound Path&gt;" class="s0" d="m0.2 222.1h40.4v10.6h-29v31.4h21.4v10.7h-21.4v41.9h29v10.8h-40.4z"/>
					<path id="&lt;Compound Path&gt;" class="s0" d="m66.2 222.1h11.7v94.4h26.2v11h-37.9z"/>
					<path id="&lt;Compound Path&gt;" class="s0" d="m127.7 222.1h11.8v94.4h26.2v11h-38z"/>
					<path id="&lt;Compound Path&gt;" fill-rule="evenodd" class="s0" d="m201.2 222.1h13.3l18.8 105.4h-11.6l-3.1-20h-21.4l-3.2 20h-11.4zm-2.6 76.1h18.4l-8.6-53.5-0.5-2.8h-0.3l-0.3 2.8z"/>
					<path id="&lt;Compound Path&gt;" class="s0" d="m291.7 222.1h11.8v41.9h21.2v-41.9h11.6v105.4h-11.6v-52.5h-21.2v52.5h-11.8z"/>
					<path id="&lt;Compound Path&gt;" fill-rule="evenodd" class="s0" d="m365.1 274.8c0-21.1 0.9-36 3.6-42.9 3.3-8.4 11.1-11.6 19.4-11.6 7.4 0 15.8 2.4 19.5 11.6 2.7 6.9 3.6 19.7 3.6 42.9 0 21.1-0.9 36-3.6 42.9-3.4 8.5-11.2 11.6-19.5 11.6-8.3 0-16.1-3.1-19.4-11.6-2.7-6.9-3.6-21.8-3.6-42.9zm23 44.2c5.6 0 8.6-2.3 9.8-10 0.9-6.2 1.4-22 1.4-34.2 0-12.2-0.5-28-1.4-34.2-1.2-7.6-4.2-9.9-9.8-9.9-5.5 0-8.6 2.3-9.8 9.9-0.9 6.2-1.2 22-1.2 34.2 0 12.2 0.3 28 1.2 34.2 1.2 7.7 4.3 10 9.8 10z"/>
					<path id="&lt;Compound Path&gt;" class="s0" d="m461.9 318.7c5.4 0 9.1-1.9 10.1-10.4 0.5-3.5 0.6-9.7 0.6-17.8v-68.4h11.6v73.5c0 23.4-4.5 33.7-22.3 33.7-17.6 0-22.3-10.3-22.3-33.7v-73.5h11.8v68.4c0 8.1 0.1 14.3 0.6 17.8 1 8.5 4.5 10.4 9.9 10.4z"/>
					<path id="&lt;Compound Path&gt;" class="s0" d="m510.3 298.6l11.3-2.2c0.9 18.8 3.3 22.4 11.5 22.4 6.7 0 9.8-3.2 9.8-12.3 0-13.3-5.7-19.6-14.6-28.8-10.4-10.7-17.4-19.7-17.4-33.9 0-15.5 8.4-23.5 22.1-23.5 16.9 0 21.4 12.2 21.7 30l-11.5 2.1c-0.1-14-1-21.7-10.5-21.7-6.6 0-10.4 3.6-10.4 12.5 0 12 6.8 18.8 14.6 27 9.2 9.4 17.8 18 17.8 35.3 0 14.1-5.9 23.8-21.7 23.8-13.7 0-22-6.4-22.7-30.7z"/>
					<path id="&lt;Compound Path&gt;" class="s0" d="m581.3 222.1h40.4v10.6h-28.9v31.4h21.4v10.7h-21.4v41.9h28.9v10.8h-40.4z"/>
				</g>
			</g>
		</g>
	</g>
</svg>