<svg version="1.2" xmlns="http://www.w3.org/2000/svg" viewBox="0 0 622 110" width="622" height="110">
	<title>logo-new-svg</title>
	<style>
		.s0 { fill: #f5f5f2 } 
	</style>
	<g id="Layer">
		<g id="Layer">
			<path id="Layer" class="s0" d="m0.4 2.5h40.4v10.5h-28.9v31.5h21.4v10.7h-21.4v41.9h28.9v10.8h-40.4z"/>
			<path id="Layer" class="s0" d="m66.4 2.5h11.7v94.4h26.2v11h-38v-105.4z"/>
			<path id="Layer" class="s0" d="m128 2.5h11.7v94.4h26.2v11h-38v-105.4z"/>
			<path id="Layer" fill-rule="evenodd" class="s0" d="m201.4 2.5h13.3l18.8 105.4h-11.6l-3.2-20h-21.4l-3.2 20h-11.4zm-2.5 76.1h18.4l-8.6-53.5-0.5-2.9h-0.3l-0.3 2.9z"/>
			<path id="Layer" class="s0" d="m291.9 2.5h11.7v41.9h21.2v-41.9h11.6v105.4h-11.6v-52.6h-21.2v52.6h-11.7z"/>
			<path id="Layer" fill-rule="evenodd" class="s0" d="m365.3 55.2c0-21.1 0.9-36 3.6-42.9 3.3-8.4 11.1-11.6 19.4-11.6 7.4 0 15.8 2.4 19.4 11.6 2.7 6.9 3.6 19.7 3.6 42.9 0 21.1-0.9 36-3.6 42.9-3.3 8.4-11.1 11.6-19.4 11.6-8.3 0-16.1-3.2-19.4-11.6-2.7-6.9-3.6-21.8-3.6-42.9zm23 44.2c5.6 0 8.6-2.3 9.8-9.9 0.9-6.2 1.4-22 1.4-34.2 0-12.2-0.5-28-1.4-34.2-1.2-7.7-4.2-9.9-9.8-9.9-5.6 0-8.6 2.3-9.8 9.9-0.9 6.2-1.2 22-1.2 34.2 0 12.2 0.3 28 1.2 34.2 1.2 7.6 4.3 9.9 9.8 9.9z"/>
			<path id="Layer" class="s0" d="m462.1 99c5.4 0 9-1.8 10.1-10.4 0.5-3.5 0.6-9.6 0.6-17.8v-68.4h11.6v73.6c0 23.3-4.5 33.7-22.3 33.7-17.6 0-22.3-10.4-22.3-33.7v-73.5h11.7v68.4c0 8.1 0.2 14.3 0.6 17.8 1.1 8.5 4.6 10.3 10 10.3z"/>
			<path id="Layer" class="s0" d="m510.5 79l11.3-2.3c0.9 18.8 3.3 22.4 11.6 22.4 6.6 0 9.8-3.2 9.8-12.3 0-13.3-5.7-19.6-14.6-28.8-10.4-10.7-17.5-19.7-17.5-33.9 0-15.5 8.4-23.5 22.1-23.5 16.9 0 21.4 12.2 21.7 30l-11.4 2.1c-0.2-14-1.1-21.7-10.5-21.7-6.6 0-10.4 3.6-10.4 12.5 0 12 6.8 18.8 14.6 27 9.2 9.5 17.8 18.1 17.8 35.4 0 14-5.9 23.8-21.7 23.8-13.8 0-22.1-6.4-22.8-30.7z"/>
			<path id="Layer" class="s0" d="m581.5 2.5h40.4v10.5h-28.9v31.5h21.4v10.7h-21.4v41.9h28.9v10.8h-40.4z"/>
		</g>
	</g>
</svg>